<svg xmlns="http://www.w3.org/2000/svg" version="1.1" xmlns:xlink="http://www.w3.org/1999/xlink" xmlns:svgjs="http://svgjs.dev/svgjs" width="1500" height="1500" viewBox="0 0 1500 1500"><g transform="matrix(1,0,0,1,-0.21332335329316265,-0.21332335329350371)"><svg viewBox="0 0 334 334" data-background-color="#ffffff" preserveAspectRatio="xMidYMid meet" height="1500" width="1500" xmlns="http://www.w3.org/2000/svg" xmlns:xlink="http://www.w3.org/1999/xlink"><g id="tight-bounds" transform="matrix(1,0,0,1,0.04749999999998522,0.04750000000001364)"><svg viewBox="0 0 333.90454557049503 333.90454557049503" height="333.90454557049503" width="333.90454557049503"><g><svg></svg></g><g><svg viewBox="0 0 333.90454557049503 333.90454557049503" height="333.90454557049503" width="333.90454557049503"><g><path d="M0 166.952c0-92.205 74.747-166.952 166.952-166.952 92.205 0 166.952 74.747 166.953 166.952 0 92.205-74.747 166.952-166.953 166.953-92.205 0-166.952-74.747-166.952-166.953zM166.952 316.63c82.665 0 149.677-67.013 149.678-149.678 0-82.665-67.013-149.677-149.678-149.677-82.665 0-149.677 67.013-149.677 149.677 0 82.665 67.013 149.677 149.677 149.678z" data-fill-palette-color="tertiary" fill="#a437db" stroke="transparent"></path><ellipse rx="160.27418187383762" ry="160.27418187383762" cx="166.95227278524752" cy="166.95227278524752" fill="#a437db" stroke="transparent" stroke-width="0" fill-opacity="1" data-fill-palette-color="tertiary"></ellipse></g><g transform="matrix(1,0,0,1,95.08464677700064,71.17305217166896)"><svg viewBox="0 0 143.73525201649375 191.55844122715712" height="191.55844122715712" width="143.73525201649375"><g><svg viewBox="0 0 143.73525201649375 191.55844122715712" height="191.55844122715712" width="143.73525201649375"><g><svg viewBox="0 0 143.73525201649375 191.55844122715712" height="191.55844122715712" width="143.73525201649375"><g><svg viewBox="0 0 143.73525201649375 191.55844122715712" height="191.55844122715712" width="143.73525201649375"><g id="textblocktransform"><svg viewBox="0 0 143.73525201649375 191.55844122715712" height="191.55844122715712" width="143.73525201649375" id="textblock"><g><svg viewBox="0 0 143.73525201649375 191.55844122715712" height="191.55844122715712" width="143.73525201649375"><g transform="matrix(1,0,0,1,0,0)"><svg width="143.73525201649375" viewBox="1.6 -35.75 27.049999999999997 36.05" height="191.55844122715712" data-palette-color="#ffffff"><path d="M26.9-31.65L25.2-28.85Q24.45-29.7 23.45-30.38 22.45-31.05 21.2-31.55 19.95-32.05 18.53-32.35 17.1-32.65 15.5-32.65L15.5-32.65Q10.85-32.65 8.68-30.88 6.5-29.1 6.5-26.05L6.5-26.05Q6.5-23.95 7.53-22.75 8.55-21.55 10.75-20.8 12.95-20.05 16.35-19.25L16.35-19.25Q20.15-18.45 22.9-17.35 25.65-16.25 27.15-14.38 28.65-12.5 28.65-9.3L28.65-9.3Q28.65-6.85 27.7-5.05 26.75-3.25 25.05-2.05 23.35-0.85 21-0.28 18.65 0.3 15.85 0.3L15.85 0.3Q13.1 0.3 10.58-0.28 8.05-0.85 5.8-1.98 3.55-3.1 1.6-4.85L1.6-4.85 3.35-7.7Q4.3-6.7 5.63-5.83 6.95-4.95 8.58-4.25 10.2-3.55 12.08-3.18 13.95-2.8 15.95-2.8L15.95-2.8Q20.2-2.8 22.58-4.35 24.95-5.9 24.95-8.95L24.95-8.95Q24.95-11.15 23.75-12.48 22.55-13.8 20.15-14.65 17.75-15.5 14.25-16.3L14.25-16.3Q10.55-17.15 8-18.2 5.45-19.25 4.17-20.98 2.9-22.7 2.9-25.55L2.9-25.55Q2.9-28.85 4.53-31.13 6.15-33.4 9-34.58 11.85-35.75 15.55-35.75L15.55-35.75Q17.9-35.75 19.93-35.27 21.95-34.8 23.68-33.9 25.4-33 26.9-31.65L26.9-31.65Z" opacity="1" transform="matrix(1,0,0,1,0,0)" fill="#ffffff" class="wordmark-text-0" data-fill-palette-color="quaternary" id="text-0"></path></svg></g></svg></g></svg></g></svg></g><g></g></svg></g></svg></g></svg></g></svg></g><defs></defs></svg><rect width="333.90454557049503" height="333.90454557049503" fill="none" stroke="none" visibility="hidden"></rect></g></svg></g></svg>